<svg xmlns="http://www.w3.org/2000/svg" viewBox="0 0 900 560" role="img" aria-labelledby="title desc">
  <title id="title">Replaceable Nashville hero placeholder</title>
  <desc id="desc">Stylized cream, teal, and rose Nashville skyline placeholder art.</desc>
  <defs>
    <linearGradient id="sky" x1="0" y1="0" x2="1" y2="1">
      <stop offset="0" stop-color="#FEE3D1"/>
      <stop offset="1" stop-color="#F6D8C5"/>
    </linearGradient>
    <linearGradient id="city" x1="0" y1="0" x2="0" y2="1">
      <stop offset="0" stop-color="#0D546B"/>
      <stop offset="1" stop-color="#715C46"/>
    </linearGradient>
  </defs>
  <rect width="900" height="560" fill="url(#sky)"/>
  <circle cx="730" cy="120" r="70" fill="#FFF7EE" opacity="0.75"/>
  <path d="M755 74a63 63 0 1 0 36 112 70 70 0 1 1-36-112z" fill="#B58A45" opacity="0.8"/>
  <g fill="#B58A45" opacity="0.72">
    <path d="M110 92l7 18 19 2-15 12 5 19-16-10-16 10 5-19-15-12 19-2z"/>
    <path d="M208 155l5 13 14 1-11 9 4 14-12-8-12 8 4-14-11-9 14-1z"/>
    <path d="M624 80l4 11 12 1-9 7 3 12-10-6-10 6 3-12-9-7 12-1z"/>
  </g>
  <g fill="url(#city)">
    <rect x="80" y="330" width="92" height="150" rx="4"/>
    <rect x="185" y="280" width="70" height="200" rx="4"/>
    <rect x="267" y="350" width="90" height="130" rx="4"/>
    <rect x="368" y="235" width="84" height="245" rx="4"/>
    <rect x="470" y="308" width="82" height="172" rx="4"/>
    <rect x="567" y="185" width="96" height="295" rx="4"/>
    <rect x="680" y="265" width="74" height="215" rx="4"/>
    <rect x="770" y="340" width="68" height="140" rx="4"/>
  </g>
  <path d="M590 185l25-70 25 70z" fill="#0D546B"/>
  <rect y="480" width="900" height="80" fill="#9B3531" opacity="0.9"/>
  <g fill="#FEE3D1" opacity="0.7">
    <rect x="104" y="362" width="10" height="18"/><rect x="128" y="362" width="10" height="18"/>
    <rect x="208" y="314" width="10" height="18"/><rect x="230" y="314" width="10" height="18"/>
    <rect x="394" y="276" width="11" height="19"/><rect x="417" y="276" width="11" height="19"/>
    <rect x="594" y="230" width="12" height="21"/><rect x="621" y="230" width="12" height="21"/>
  </g>
  <text x="56" y="70" font-family="Georgia, serif" font-size="31" fill="#9B3531">Nashville hero image</text>
  <text x="58" y="108" font-family="Arial, sans-serif" font-size="18" fill="#715C46">Replace this file with your own photo later</text>
</svg>
